<svg xmlns="http://www.w3.org/2000/svg" width="900" height="380" viewBox="0 0 900 380" font-family="-apple-system,BlinkMacSystemFont,'Segoe UI',Helvetica,Arial,sans-serif">
<style>
.bg{fill:#ffffff;stroke:#d0d7de}.t{fill:#1f2328}.m{fill:#59636e}.rule{stroke:#d0d7de}.hole{fill:#ffffff}
@media (prefers-color-scheme: dark){
.bg{fill:#0d1117;stroke:#30363d}.t{fill:#e6edf3}.m{fill:#9198a1}.rule{stroke:#30363d}.hole{fill:#0d1117}}
</style>
<rect class="bg" x="0.5" y="0.5" width="899" height="379" rx="12"/>
<text x="24.0" y="36.0" class="t" font-size="18" font-weight="600" text-anchor="start">What pull requests have added</text>
<text x="24.0" y="58.0" class="m" font-size="12" font-weight="400" text-anchor="start">Frontier gain (FG-2) credited to merged pull requests · epoch hpc01-e3</text>
<text x="876.0" y="36.0" fill="#8b5cf6" font-size="18" font-weight="600" text-anchor="end">+0.287%</text>
<text x="876.0" y="58.0" class="m" font-size="12" font-weight="400" text-anchor="end">4 merged · 6 scored · 4 authors</text>
<line class="rule" x1="70" x2="870" y1="300.0" y2="300.0" stroke-width="1"/>
<text x="62.0" y="304.0" class="m" font-size="11" font-weight="400" text-anchor="end">0.00%</text>
<line class="rule" x1="70" x2="870" y1="198.0" y2="198.0" stroke-width="1"/>
<text x="62.0" y="202.0" class="m" font-size="11" font-weight="400" text-anchor="end">0.18%</text>
<line class="rule" x1="70" x2="870" y1="96.0" y2="96.0" stroke-width="1"/>
<text x="62.0" y="100.0" class="m" font-size="11" font-weight="400" text-anchor="end">0.36%</text>
<polyline points="70.0,300.0 136.7,300.0 136.7,231.7 270.0,231.7 270.0,157.1 536.7,157.1 536.7,151.6 670.0,151.6 670.0,136.8 870.0,136.8" fill="none" stroke="#8b5cf6" stroke-width="2.5" stroke-linejoin="round"/>
<circle cx="136.7" cy="231.7" r="6" fill="#8b5cf6"/>
<text x="136.7" y="219.7" fill="#8b5cf6" font-size="11" font-weight="600" text-anchor="middle">M</text>
<text x="136.7" y="322.0" class="t" font-size="12" font-weight="600" text-anchor="middle">#4</text>
<text x="136.7" y="338.0" class="m" font-size="11" font-weight="400" text-anchor="middle">coderbench</text>
<circle cx="270.0" cy="157.1" r="6" fill="#8b5cf6"/>
<text x="270.0" y="145.1" fill="#8b5cf6" font-size="11" font-weight="600" text-anchor="middle">M</text>
<text x="270.0" y="322.0" class="t" font-size="12" font-weight="600" text-anchor="middle">#5</text>
<text x="270.0" y="338.0" class="m" font-size="11" font-weight="400" text-anchor="middle">coderbench</text>
<path d="M398.3,152.1L408.3,162.1M398.3,162.1L408.3,152.1" stroke="#cf222e" stroke-width="2.5" stroke-linecap="round"/>
<text x="403.3" y="322.0" class="t" font-size="12" font-weight="600" text-anchor="middle">#6</text>
<text x="403.3" y="338.0" class="m" font-size="11" font-weight="400" text-anchor="middle">harrythomasben</text>
<circle cx="536.7" cy="151.6" r="6" fill="#8b5cf6"/>
<text x="536.7" y="139.6" fill="#8b5cf6" font-size="11" font-weight="600" text-anchor="middle">XS</text>
<text x="536.7" y="322.0" class="t" font-size="12" font-weight="600" text-anchor="middle">#7</text>
<text x="536.7" y="338.0" class="m" font-size="11" font-weight="400" text-anchor="middle">harrythomasben</text>
<circle cx="670.0" cy="136.8" r="6" fill="#8b5cf6"/>
<text x="670.0" y="124.8" fill="#8b5cf6" font-size="11" font-weight="600" text-anchor="middle">XS</text>
<text x="670.0" y="322.0" class="t" font-size="12" font-weight="600" text-anchor="middle">#8</text>
<text x="670.0" y="338.0" class="m" font-size="11" font-weight="400" text-anchor="middle">dato-bitar</text>
<path d="M798.3,131.8L808.3,141.8M798.3,141.8L808.3,131.8" stroke="#cf222e" stroke-width="2.5" stroke-linecap="round"/>
<text x="803.3" y="322.0" class="t" font-size="12" font-weight="600" text-anchor="middle">#9</text>
<text x="803.3" y="338.0" class="m" font-size="11" font-weight="400" text-anchor="middle">cleanjunc</text>
<circle cx="30.0" cy="362.0" r="6" fill="#8b5cf6"/>
<text x="42.0" y="366.0" class="m" font-size="11" font-weight="400" text-anchor="start">merged, with its tier</text>
<circle class="hole" cx="196.2" cy="362.0" r="5.5" stroke="#8b5cf6" stroke-width="2.5"/>
<text x="208.2" y="366.0" class="m" font-size="11" font-weight="400" text-anchor="start">scored, open</text>
<circle class="hole" cx="306.6" cy="362.0" r="5.5" stroke="#8c959f" stroke-width="2.5"/>
<text x="318.6" y="366.0" class="m" font-size="11" font-weight="400" text-anchor="start">no new frontier space</text>
<path d="M467.8,357.0L477.8,367.0M467.8,367.0L477.8,357.0" stroke="#cf222e" stroke-width="2.5" stroke-linecap="round"/>
<text x="484.8" y="366.0" class="m" font-size="11" font-weight="400" text-anchor="start">rejected</text>
</svg>
