<svg xmlns="http://www.w3.org/2000/svg" width="900" height="470" viewBox="0 0 900 470" font-family="-apple-system,BlinkMacSystemFont,'Segoe UI',Helvetica,Arial,sans-serif" role="img" aria-label="Frontier gain credited to merged pull requests: +0.350% from 1 merges, 6 pull requests scored">
<style>
.bg{fill:#ffffff;stroke:#d0d7de}.t{fill:#1f2328}.m{fill:#59636e}.rule{stroke:#d0d7de}.ring{stroke:#ffffff}
.acc{fill:#8b5cf6}.accl{stroke:#8b5cf6}.wash{fill:#8b5cf6;fill-opacity:.1}.gry{fill:#8c959f}.rej{fill:#d03b3b}.track{fill:#eaeef2}.tk{stroke:#1f2328}
@media (prefers-color-scheme: dark){
.bg{fill:#0d1117;stroke:#30363d}.t{fill:#e6edf3}.m{fill:#9198a1}.rule{stroke:#30363d}.ring{stroke:#0d1117}
.acc{fill:#9a75f8}.accl{stroke:#9a75f8}.wash{fill:#9a75f8;fill-opacity:.14}.gry{fill:#9198a1}.rej{fill:#e5534b}.track{fill:#21262d}.tk{stroke:#e6edf3}}
</style>
<rect class="bg" x="0.5" y="0.5" width="899" height="469" rx="12"/>
<text x="24.0" y="36.0" class="t" font-size="18" font-weight="600" text-anchor="start">What pull requests have added</text>
<text x="24.0" y="57.0" class="m" font-size="12" font-weight="400" text-anchor="start">Epoch hpc01-e5 · redrawn by the evaluator after every pass · first-seen dates, UTC</text>
<text x="24.0" y="88.0" class="m" font-size="12" font-weight="400" text-anchor="start">Frontier gain credited</text>
<text x="24.0" y="120.0" class="t" font-size="28" font-weight="600" text-anchor="start">+0.350%</text>
<text x="237.0" y="88.0" class="m" font-size="12" font-weight="400" text-anchor="start">Merged pull requests</text>
<text x="237.0" y="120.0" class="t" font-size="28" font-weight="600" text-anchor="start">1</text>
<text x="450.0" y="88.0" class="m" font-size="12" font-weight="400" text-anchor="start">Authors</text>
<text x="450.0" y="120.0" class="t" font-size="28" font-weight="600" text-anchor="start">4</text>
<text x="663.0" y="88.0" class="m" font-size="12" font-weight="400" text-anchor="start">Pull requests scored</text>
<text x="663.0" y="120.0" class="t" font-size="28" font-weight="600" text-anchor="start">6</text>
<line class="rule" x1="24" x2="876" y1="140" y2="140" stroke-width="1"/>
<text x="24.0" y="170.0" class="t" font-size="12" font-weight="600" text-anchor="start">Credited frontier gain over time</text>
<text x="24.0" y="346.0" class="t" font-size="12" font-weight="600" text-anchor="start">Pull requests scored</text>
<line class="rule" x1="64" x2="596" y1="318.0" y2="318.0" stroke-width="1"/>
<text x="56.0" y="322.0" class="m" font-size="11" font-weight="400" text-anchor="end">0%</text>
<line class="rule" x1="64" x2="596" y1="257.0" y2="257.0" stroke-width="1"/>
<text x="56.0" y="261.0" class="m" font-size="11" font-weight="400" text-anchor="end">0.25%</text>
<line class="rule" x1="64" x2="596" y1="196.0" y2="196.0" stroke-width="1"/>
<text x="56.0" y="200.0" class="m" font-size="11" font-weight="400" text-anchor="end">0.5%</text>
<polygon class="wash" points="64.0,318.0 549.1,318.0 549.1,232.7 596.0,232.7 596.0,318.0"/>
<polyline class="accl" points="64.0,318.0 549.1,318.0 549.1,232.7 596.0,232.7" fill="none" stroke-width="2" stroke-linejoin="round" stroke-linecap="round"/>
<circle class="acc ring" cx="549.1" cy="232.7" r="4.5" stroke-width="2"/>
<text x="549.1" y="221.7" class="t" font-size="11" font-weight="600" text-anchor="middle">#33 · L</text>
<path class="gry" d="M470.0,412.0V391.0Q470.0,387.0 474.0,387.0H490.0Q494.0,387.0 494.0,391.0V412.0Z"/>
<rect class="acc" x="546.0" y="399.5" width="24.0" height="12.5"/>
<rect class="gry" x="546.0" y="374.5" width="24.0" height="23.0"/>
<path class="rej" d="M546.0,372.5V366.0Q546.0,362.0 550.0,362.0H566.0Q570.0,362.0 570.0,366.0V372.5Z"/>
<line class="rule" x1="64" x2="596" y1="412" y2="412" stroke-width="1"/>
<text x="56.0" y="366.0" class="m" font-size="11" font-weight="400" text-anchor="end">4</text>
<text x="56.0" y="412.0" class="m" font-size="11" font-weight="400" text-anchor="end">0</text>
<text x="596.0" y="346.0" class="m" font-size="11" font-weight="400" text-anchor="end">per day</text>
<text x="64.0" y="429.0" class="m" font-size="11" font-weight="400" text-anchor="middle">Sep 24</text>
<text x="216.0" y="429.0" class="m" font-size="11" font-weight="400" text-anchor="middle">Sep 26</text>
<text x="368.0" y="429.0" class="m" font-size="11" font-weight="400" text-anchor="middle">Sep 28</text>
<text x="520.0" y="429.0" class="m" font-size="11" font-weight="400" text-anchor="middle">Sep 30</text>
<rect class="acc" x="64" y="446" width="10" height="10" rx="2"/>
<text x="79.0" y="455.0" class="m" font-size="11" font-weight="400" text-anchor="start">merged or earning a tier</text>
<rect class="gry" x="242.8" y="446" width="10" height="10" rx="2"/>
<text x="257.8" y="455.0" class="m" font-size="11" font-weight="400" text-anchor="start">no new frontier space</text>
<rect class="rej" x="403.0" y="446" width="10" height="10" rx="2"/>
<text x="418.0" y="455.0" class="m" font-size="11" font-weight="400" text-anchor="start">rejected</text>
<text x="640.0" y="170.0" class="t" font-size="12" font-weight="600" text-anchor="start">Top authors by credited gain</text>
<text x="640.0" y="196.0" class="t" font-size="12" font-weight="400" text-anchor="start">cleanjunc</text>
<text x="876.0" y="196.0" class="m" font-size="11" font-weight="400" text-anchor="end">+0.350% · 1 merged</text>
<rect class="track" x="640" y="202" width="236" height="8" rx="4"/>
<rect class="acc" x="640" y="202" width="236.0" height="8" rx="4"/>
</svg>
