<svg xmlns="http://www.w3.org/2000/svg" width="900" height="470" viewBox="0 0 900 470" font-family="-apple-system,BlinkMacSystemFont,'Segoe UI',Helvetica,Arial,sans-serif" role="img" aria-label="Trade-offs of 5 merged recipes against the shipped checkpoint">
<style>
.bg{fill:#ffffff;stroke:#d0d7de}.t{fill:#1f2328}.m{fill:#59636e}.rule{stroke:#d0d7de}.ring{stroke:#ffffff}
.acc{fill:#8b5cf6}.accl{stroke:#8b5cf6}.wash{fill:#8b5cf6;fill-opacity:.1}.gry{fill:#8c959f}.rej{fill:#d03b3b}.track{fill:#eaeef2}.tk{stroke:#1f2328}
@media (prefers-color-scheme: dark){
.bg{fill:#0d1117;stroke:#30363d}.t{fill:#e6edf3}.m{fill:#9198a1}.rule{stroke:#30363d}.ring{stroke:#0d1117}
.acc{fill:#9a75f8}.accl{stroke:#9a75f8}.wash{fill:#9a75f8;fill-opacity:.14}.gry{fill:#9198a1}.rej{fill:#e5534b}.track{fill:#21262d}.tk{stroke:#e6edf3}}
</style>
<rect class="bg" x="0.5" y="0.5" width="899" height="469" rx="12"/>
<text x="24.0" y="36.0" class="t" font-size="18" font-weight="600" text-anchor="start">Which trade-off each merged recipe makes</text>
<text x="24.0" y="57.0" class="m" font-size="12" font-weight="400" text-anchor="start">Up is closer to the original model; right reads prompts faster. Labels give peak GPU memory.</text>
<line class="rule" x1="84" x2="870" y1="92.0" y2="92.0" stroke-width="1"/>
<text x="76.0" y="96.0" class="m" font-size="11" font-weight="400" text-anchor="end">0.120</text>
<line class="rule" x1="84" x2="870" y1="149.6" y2="149.6" stroke-width="1"/>
<text x="76.0" y="153.6" class="m" font-size="11" font-weight="400" text-anchor="end">0.125</text>
<line class="rule" x1="84" x2="870" y1="207.2" y2="207.2" stroke-width="1"/>
<text x="76.0" y="211.2" class="m" font-size="11" font-weight="400" text-anchor="end">0.130</text>
<line class="rule" x1="84" x2="870" y1="264.8" y2="264.8" stroke-width="1"/>
<text x="76.0" y="268.8" class="m" font-size="11" font-weight="400" text-anchor="end">0.135</text>
<line class="rule" x1="84" x2="870" y1="322.4" y2="322.4" stroke-width="1"/>
<text x="76.0" y="326.4" class="m" font-size="11" font-weight="400" text-anchor="end">0.140</text>
<line class="rule" x1="84" x2="870" y1="380.0" y2="380.0" stroke-width="1"/>
<text x="76.0" y="384.0" class="m" font-size="11" font-weight="400" text-anchor="end">0.145</text>
<text x="84.0" y="398.0" class="m" font-size="11" font-weight="400" text-anchor="middle">6,000</text>
<text x="241.2" y="398.0" class="m" font-size="11" font-weight="400" text-anchor="middle">8,000</text>
<text x="398.4" y="398.0" class="m" font-size="11" font-weight="400" text-anchor="middle">10,000</text>
<text x="555.6" y="398.0" class="m" font-size="11" font-weight="400" text-anchor="middle">12,000</text>
<text x="712.8" y="398.0" class="m" font-size="11" font-weight="400" text-anchor="middle">14,000</text>
<text x="870.0" y="398.0" class="m" font-size="11" font-weight="400" text-anchor="middle">16,000</text>
<text x="477.0" y="420.0" class="m" font-size="12" font-weight="400" text-anchor="middle">Prompt reading speed, 4K prefill tok/s →</text>
<text x="22" y="236.0" class="m" font-size="12" text-anchor="middle" transform="rotate(-90 22 236.0)">Drift from the original, RP-KL (closer ↑)</text>
<text x="866.0" y="108.0" class="m" font-size="12" font-weight="600" text-anchor="end">better ↗</text>
<circle class="gry" cx="204.8" cy="140.1" r="4" opacity=".55"/>
<circle class="gry" cx="556.5" cy="349.6" r="4" opacity=".55"/>
<circle class="gry" cx="269.4" cy="260.4" r="4" opacity=".55"/>
<circle class="gry" cx="256.9" cy="189.3" r="4" opacity=".55"/>
<circle class="gry" cx="206.6" cy="180.9" r="4" opacity=".55"/>
<circle class="gry" cx="204.8" cy="140.1" r="4" opacity=".55"/>
<circle class="gry" cx="556.5" cy="349.6" r="4" opacity=".55"/>
<circle class="gry" cx="269.4" cy="260.4" r="4" opacity=".55"/>
<circle class="gry" cx="256.9" cy="189.3" r="4" opacity=".55"/>
<circle class="gry" cx="206.6" cy="180.9" r="4" opacity=".55"/>
<circle class="tk" cx="772.5" cy="273.4" r="5" fill="none" stroke-width="2"/>
<circle class="acc ring" cx="502.2" cy="207.5" r="5.5" stroke-width="2"/>
<circle class="acc ring" cx="736.5" cy="196.9" r="5.5" stroke-width="2"/>
<circle class="acc ring" cx="680.7" cy="284.4" r="5.5" stroke-width="2"/>
<circle class="acc ring" cx="328.8" cy="140.7" r="5.5" stroke-width="2"/>
<circle class="acc ring" cx="392.1" cy="228.2" r="5.5" stroke-width="2"/>
<text x="772.5" y="262.4" class="t" font-size="11" font-weight="600" text-anchor="middle">V0 shipped · 22.0 GiB</text>
<text x="337.8" y="144.7" class="t" font-size="11" font-weight="600" text-anchor="start">#8 · 20.8 GiB</text>
<text x="745.5" y="200.9" class="t" font-size="11" font-weight="600" text-anchor="start">#5 · 21.8 GiB</text>
<text x="511.2" y="211.5" class="t" font-size="11" font-weight="600" text-anchor="start">#10 · 21.3 GiB</text>
<text x="401.1" y="232.2" class="t" font-size="11" font-weight="600" text-anchor="start">#4 · 20.9 GiB</text>
<text x="671.7" y="288.4" class="t" font-size="11" font-weight="600" text-anchor="end">#7 · 21.6 GiB</text>
<circle class="acc" cx="29" cy="450" r="5"/>
<text x="39.0" y="454.0" class="m" font-size="11" font-weight="400" text-anchor="start">merged pull request</text>
<circle class="tk" cx="199" cy="450" r="5" fill="none" stroke-width="2"/>
<text x="209.0" y="454.0" class="m" font-size="11" font-weight="400" text-anchor="start">V0, the shipped checkpoint</text>
<circle class="gry" cx="399" cy="450" r="4" opacity=".55"/>
<text x="409.0" y="454.0" class="m" font-size="11" font-weight="400" text-anchor="start">other measured results</text>
</svg>
